<svg xmlns="http://www.w3.org/2000/svg" width="524.000000pt" height="690.000000pt" viewBox="0 0 524.000000 690.000000" preserveAspectRatio="xMidYMid meet"><g transform="translate(0.000000,690.000000) scale(0.100000,-0.100000)" fill="#000000" stroke="none"><path d="M1397 6122 c-9 -10 -17 -30 -17 -45 0 -46 97 -217 225 -397 l124 -174 -113 -111 c-132 -129 -195 -217 -282 -399 -104 -218 -149 -384 -143 -530 5 -121 17 -131 164 -145 334 -32 2163 -40 2405 -11 112 14 122 18 144 65 41 87 29 235 -36 425 -84 245 -187 411 -364 586 l-122 121 124 174 c119 168 224 349 224 389 0 10 -5 31 -12 45 -33 74 -141 -15 -300 -247 -95 -139 -164 -208 -206 -208 -17 0 -103 18 -193 40 -377 91 -564 90 -934 -5 -76 -19 -150 -35 -167 -35 -64 0 -109 42 -243 224 -159 216 -237 283 -278 238z m1262 -552 c366 -33 691 -231 910 -552 43 -65 109 -203 127 -269 15 -56 44 -211 44 -241 0 -17 -63 -18 -1180 -18 l-1180 0 0 69 c0 129 62 277 206 494 108 162 228 285 336 346 166 92 339 150 506 170 105 12 113 12 231 1z"></path><path d="M2510 5044 c-54 -46 -74 -109 -49 -156 23 -43 141 -64 187 -32 18 12 22 25 22 64 0 127 -81 190 -160 124z m104 -70 c9 -8 16 -23 16 -31 0 -21 -29 -53 -48 -53 -22 0 -52 30 -52 51 0 23 26 49 50 49 10 0 26 -7 34 -16z"></path><path d="M4441 5701 c-46 -46 -56 -160 -71 -766 -16 -647 -22 -676 -192 -811 l-70 -57 -362 9 c-560 14 -2373 11 -2531 -5 -258 -24 -360 -61 -482 -174 -71 -67 -112 -133 -141 -227 -41 -137 -47 -222 -46 -690 2 -659 20 -780 112 -780 25 0 42 21 53 67 6 21 14 259 19 528 9 503 25 741 56 832 46 135 165 243 286 259 53 7 73 -11 89 -82 6 -30 14 -315 19 -734 10 -837 20 -958 96 -1117 63 -133 269 -291 401 -308 156 -20 144 16 154 -465 9 -449 22 -560 70 -575 50 -16 79 25 105 148 12 54 17 167 21 466 l5 393 237 -6 c130 -3 376 -9 548 -12 l311 -6 5 -427 c5 -435 11 -503 45 -534 15 -13 21 -14 49 -2 43 18 69 63 83 144 6 36 15 226 20 421 6 301 10 361 25 398 13 31 24 44 44 48 92 19 123 29 181 60 134 71 276 215 300 305 32 117 50 500 50 1074 1 494 11 729 35 775 14 27 20 30 63 30 64 0 161 24 230 57 95 44 198 168 246 294 45 119 48 161 53 709 5 545 -2 710 -32 756 -19 29 -57 32 -84 5z m-714 -2613 c-3 -700 -6 -815 -21 -896 -41 -225 -110 -313 -285 -361 -148 -41 -283 -46 -949 -33 -339 7 -669 12 -733 12 l-116 0 -82 98 c-161 190 -152 126 -158 1155 l-5 827 1177 0 1176 0 -4 -802z"></path></g></svg>