<?xml version="1.0" standalone="no"?>
<!DOCTYPE svg PUBLIC "-//W3C//DTD SVG 20010904//EN"
 "http://www.w3.org/TR/2001/REC-SVG-20010904/DTD/svg10.dtd">
<svg version="1.0" xmlns="http://www.w3.org/2000/svg"
 width="401.000000pt" height="159.000000pt" viewBox="0 0 401.000000 159.000000"
 preserveAspectRatio="xMidYMid meet">

<g transform="translate(0.000000,159.000000) scale(0.100000,-0.100000)"
fill="#000000" stroke="none">
<path d="M1556 1434 c-28 -28 -50 -127 -60 -275 -10 -143 -108 -472 -135 -455
-8 6 -75 209 -111 340 -25 95 -52 136 -86 136 -46 0 -48 -28 -24 -267 26 -255
26 -351 3 -488 -9 -55 -13 -113 -10 -127 8 -31 38 -51 61 -42 30 11 66 197 66
336 0 32 4 58 8 58 5 0 19 -22 32 -50 61 -131 102 -102 191 134 18 49 34 85
36 80 1 -5 14 -81 28 -169 33 -204 56 -301 95 -394 47 -114 71 -133 108 -86
l20 26 -39 97 c-42 103 -79 275 -119 558 -24 175 -25 260 -1 432 15 114 16
135 4 152 -17 24 -46 26 -67 4z"/>
<path d="M300 1345 c0 -8 16 -37 35 -63 l35 -49 -30 -28 c-55 -53 -100 -186
-69 -206 16 -10 498 -13 523 -3 40 15 0 148 -64 209 l-30 28 35 49 c19 26 35
55 35 63 0 31 -29 13 -60 -36 -27 -41 -37 -49 -54 -44 -100 28 -140 28 -242
-1 -16 -4 -27 5 -55 45 -34 50 -59 65 -59 36z m358 -132 c55 -34 100 -94 109
-146 l6 -37 -237 0 -236 0 0 23 c0 32 55 122 89 146 82 59 188 64 269 14z"/>
<path d="M521 1136 c-16 -19 -6 -36 20 -36 15 0 20 6 17 22 -4 27 -21 33 -37
14z m29 -16 c0 -5 -4 -10 -10 -10 -5 0 -10 5 -10 10 0 6 5 10 10 10 6 0 10 -4
10 -10z"/>
<path d="M3225 1217 c-15 -12 -17 -22 -11 -58 16 -102 40 -133 86 -109 36 19
21 148 -20 170 -25 13 -33 13 -55 -3z"/>
<path d="M2932 1098 c-16 -16 -15 -53 1 -66 28 -23 55 -23 76 -1 26 28 26 34
1 59 -22 22 -60 26 -78 8z"/>
<path d="M200 932 c-60 -32 -71 -67 -68 -222 3 -119 5 -135 21 -138 15 -3 17
8 17 127 0 71 5 142 10 157 12 32 37 53 63 54 16 0 17 -15 17 -175 0 -191 5
-214 56 -254 15 -12 37 -21 50 -21 24 0 24 -2 24 -99 0 -63 4 -102 11 -107 20
-12 29 20 29 111 l0 90 47 -2 c27 -1 76 -2 111 -2 l62 -1 0 -93 c0 -98 4 -114
27 -96 9 8 13 39 13 105 0 83 2 94 18 94 24 0 73 34 88 62 10 16 13 76 14 206
0 171 1 182 19 182 10 0 30 -12 44 -26 26 -25 27 -30 29 -167 3 -126 5 -142
21 -145 16 -3 17 9 17 140 0 126 -2 147 -20 176 -36 59 -56 62 -387 62 -270 0
-302 -2 -333 -18z m570 -205 c0 -249 9 -241 -265 -235 l-157 3 -24 28 c-23 27
-24 32 -24 208 l0 179 235 0 235 0 0 -183z"/>
<path d="M3675 908 c-94 -23 -188 -87 -221 -149 -18 -36 -18 -82 0 -118 18
-34 95 -73 189 -97 71 -17 117 -45 117 -71 0 -55 -104 -143 -170 -143 -34 0
-38 3 -49 39 -13 44 -38 59 -72 41 -19 -11 -21 -18 -16 -63 3 -39 11 -56 31
-74 35 -30 92 -44 137 -34 98 22 222 127 235 198 14 76 -44 162 -120 179 -69
14 -184 55 -196 69 -9 11 -6 21 16 50 29 38 49 52 97 66 26 7 33 4 60 -26 34
-39 56 -44 81 -16 14 16 15 25 5 72 -20 94 -29 100 -124 77z"/>
<path d="M2534 899 c-18 -5 -47 -27 -65 -49 -19 -22 -48 -55 -65 -74 l-31 -33
4 -263 c5 -289 12 -335 52 -335 40 0 63 43 69 130 4 65 7 75 21 70 132 -55
301 -87 345 -67 17 7 26 20 26 34 0 45 -14 52 -112 59 -96 7 -188 35 -230 68
l-23 19 44 43 c96 95 134 196 112 295 -19 82 -77 123 -147 103z m54 -135 c4
-51 -28 -138 -67 -184 l-30 -35 -1 66 c0 107 39 204 79 197 11 -2 17 -17 19
-44z"/>
<path d="M2032 870 c-37 -15 -118 -103 -146 -159 -63 -124 -73 -298 -22 -386
84 -143 260 -71 367 152 62 130 61 219 -4 315 -50 75 -126 105 -195 78z m96
-106 c61 -42 64 -107 12 -242 -34 -88 -85 -155 -131 -171 -27 -9 -33 -8 -56
15 -25 25 -25 29 -21 122 7 125 34 202 78 219 16 6 32 18 35 27 3 9 7 23 10
31 6 20 45 19 73 -1z"/>
<path d="M2983 853 c-44 -67 -15 -505 37 -569 16 -18 54 -18 69 0 9 11 8 35
-5 103 -12 60 -18 148 -19 279 -1 105 -5 196 -9 203 -13 21 -55 12 -73 -16z"/>
</g>
</svg>
